<svg width="339" height="113" viewBox="0 0 339 113" fill="none" xmlns="http://www.w3.org/2000/svg">
<g clip-path="url(#clip0_1639_4988)">
<path d="M311.662 0.000365982H26.9815C25.9438 0.000365982 24.9185 0.000365982 23.8836 0.00599647C23.0172 0.011627 22.1578 0.0279835 21.2831 0.0417501C19.3829 0.0639956 17.4872 0.230305 15.6124 0.539232C13.7403 0.854885 11.9268 1.44998 10.2333 2.30439C8.54182 3.16603 6.9963 4.28564 5.65277 5.62261C4.30219 6.95582 3.17637 8.49682 2.31862 10.1864C1.45849 11.8726 0.862079 13.6795 0.549976 15.5447C0.234906 17.4076 0.0653643 19.2919 0.0428718 21.1808C0.0166111 22.044 0.0138378 22.91 0 23.7733V88.8456C0.0138378 89.7197 0.0166111 90.5665 0.0428718 91.4409C0.0653712 93.3298 0.234913 95.214 0.549976 97.0768C0.861217 98.9431 1.45766 100.751 2.31862 102.438C3.17598 104.122 4.30196 105.657 5.65277 106.983C6.9912 108.325 8.53772 109.446 10.2333 110.301C11.9268 111.158 13.7401 111.756 15.6124 112.077C17.4875 112.383 19.383 112.55 21.2831 112.574C22.1578 112.594 23.0172 112.605 23.8836 112.605C24.9185 112.61 25.9438 112.61 26.9815 112.61H311.662C312.679 112.61 313.712 112.61 314.729 112.605C315.592 112.605 316.476 112.594 317.338 112.574C319.235 112.551 321.127 112.384 322.998 112.077C324.876 111.754 326.696 111.155 328.398 110.301C330.092 109.445 331.637 108.325 332.974 106.983C334.321 105.652 335.45 104.118 336.318 102.438C337.172 100.75 337.763 98.942 338.07 97.0768C338.385 95.2138 338.561 93.3299 338.595 91.4409C338.606 90.5665 338.606 89.7197 338.606 88.8456C338.628 87.8228 338.628 86.8056 338.628 85.7663V26.8469C338.628 25.8159 338.628 24.7932 338.606 23.7733C338.606 22.91 338.606 22.044 338.595 21.1807C338.561 19.2916 338.385 17.4077 338.07 15.5446C337.762 13.6804 337.172 11.8737 336.318 10.1863C334.571 6.79974 331.801 4.04313 328.398 2.30414C326.696 1.45181 324.876 0.856877 322.998 0.538979C321.127 0.22869 319.235 0.0623232 317.338 0.041356C316.476 0.0276176 315.592 0.0111202 314.729 0.00563049C313.712 0 312.679 0.000365982 311.662 0.000365982Z" fill="white"/>
<path d="M23.8976 110.147C23.0354 110.147 22.1941 110.136 21.3386 110.116C19.5665 110.093 17.7986 109.94 16.0493 109.657C14.4182 109.378 12.838 108.858 11.361 108.115C9.89755 107.378 8.56275 106.411 7.40775 105.253C6.23604 104.108 5.26053 102.78 4.51989 101.321C3.77109 99.8534 3.25287 98.28 2.9833 96.6559C2.69218 94.9107 2.53467 93.1461 2.51213 91.3773C2.49419 90.7835 2.4707 88.8067 2.4707 88.8067V23.7729C2.4707 23.7729 2.49572 21.8264 2.51227 21.2546C2.53385 19.4885 2.69045 17.7267 2.98069 15.9842C3.25077 14.3557 3.76939 12.7777 4.51859 11.305C5.25651 9.84761 6.2266 8.51858 7.39126 7.36945C8.5546 6.2094 9.89367 5.2381 11.3596 4.49095C12.8332 3.75021 14.4104 3.234 16.0382 2.95962C17.7933 2.67406 19.5674 2.51967 21.3456 2.49775L23.899 2.46338H314.716L317.3 2.49913C319.062 2.51996 320.82 2.67297 322.559 2.95686C324.203 3.23469 325.797 3.75449 327.287 4.4992C330.224 6.00492 332.614 8.38711 334.121 11.3119C334.858 12.7744 335.369 14.3395 335.636 15.954C335.929 17.7107 336.094 19.4864 336.127 21.267C336.136 22.0642 336.136 22.9206 336.136 23.7729C336.158 24.8286 336.158 25.8335 336.158 26.8466V85.7659C336.158 86.7887 336.158 87.7867 336.136 88.7929C336.136 89.7084 336.136 90.5471 336.125 91.4102C336.092 93.159 335.93 94.903 335.641 96.6283C335.377 98.2641 334.862 99.8498 334.113 101.33C333.367 102.772 332.397 104.089 331.239 105.231C330.083 106.396 328.746 107.368 327.279 108.109C325.793 108.858 324.201 109.38 322.559 109.657C320.81 109.941 319.041 110.095 317.269 110.116C316.44 110.136 315.572 110.147 314.73 110.147L311.662 110.152L23.8976 110.147Z" fill="#07315C"/>
<path d="M70.0906 57.1516C70.121 54.8018 70.7484 52.4979 71.9143 50.4541C73.0803 48.4104 74.747 46.6933 76.7592 45.4625C75.4809 43.6462 73.7945 42.1515 71.8339 41.0971C69.8733 40.0426 67.6926 39.4575 65.4649 39.3881C60.713 38.8919 56.1062 42.217 53.6847 42.217C51.2163 42.217 47.488 39.4374 43.4733 39.5196C40.8764 39.603 38.3456 40.3543 36.1273 41.7002C33.9091 43.046 32.0791 44.9405 30.8157 47.1992C25.3428 56.6258 29.4251 70.4798 34.6676 78.0996C37.2906 81.8307 40.3561 85.9986 44.3672 85.8508C48.2924 85.6888 49.7583 83.3607 54.4963 83.3607C59.1903 83.3607 60.5657 85.8508 64.6582 85.7568C68.87 85.6888 71.5237 82.009 74.0547 78.2425C75.9392 75.5839 77.3894 72.6456 78.3515 69.5363C75.9045 68.5067 73.8164 66.7833 72.3473 64.5809C70.8783 62.3786 70.0934 59.7947 70.0906 57.1516Z" fill="white"/>
<path d="M62.361 34.3768C64.6575 31.6341 65.7889 28.1089 65.5149 24.5498C62.0064 24.9164 58.7655 26.5846 56.438 29.222C55.3 30.5105 54.4285 32.0094 53.8731 33.6331C53.3178 35.2569 53.0896 36.9736 53.2015 38.6852C54.9564 38.7031 56.6925 38.3247 58.2791 37.5784C59.8657 36.8322 61.2613 35.7374 62.361 34.3768Z" fill="white"/>
<path d="M119.707 76.405H106.312L103.095 85.8542H97.4219L110.109 50.8945H116.004L128.691 85.8542H122.921L119.707 76.405ZM107.699 72.0447H118.317L113.083 56.7093H112.936L107.699 72.0447Z" fill="white"/>
<path d="M156.091 73.1112C156.091 81.0319 151.829 86.1207 145.399 86.1207C143.77 86.2055 142.15 85.8322 140.724 85.0435C139.298 84.2549 138.125 83.0828 137.338 81.6614H137.216V94.286H131.957V60.3656H137.047V64.605H137.144C137.968 63.1904 139.161 62.0244 140.597 61.2309C142.034 60.4374 143.66 60.0462 145.302 60.0989C151.804 60.099 156.091 65.2126 156.091 73.1112ZM150.685 73.1112C150.685 67.9509 148.005 64.5583 143.915 64.5583C139.897 64.5583 137.194 68.0223 137.194 73.1112C137.194 78.2469 139.897 81.6862 143.915 81.6862C148.005 81.6862 150.685 78.3183 150.685 73.1112Z" fill="white"/>
<path d="M184.29 73.1114C184.29 81.0321 180.029 86.1209 173.598 86.1209C171.969 86.2057 170.349 85.8324 168.923 85.0438C167.498 84.2551 166.324 83.083 165.537 81.6616H165.415V94.2862H160.156V60.3658H165.247V64.6052H165.343C166.167 63.1906 167.36 62.0246 168.797 61.2311C170.233 60.4377 171.859 60.0465 173.501 60.0992C180.004 60.0992 184.29 65.2128 184.29 73.1114ZM178.885 73.1114C178.885 67.9511 176.204 64.5585 172.114 64.5585C168.096 64.5585 165.393 68.0226 165.393 73.1114C165.393 78.2471 168.096 81.6864 172.114 81.6864C176.204 81.6864 178.885 78.3186 178.885 73.1114Z" fill="white"/>
<path d="M202.926 76.1135C203.316 79.5803 206.701 81.8566 211.327 81.8566C215.76 81.8566 218.949 79.5802 218.949 76.4543C218.949 73.7408 217.026 72.116 212.471 71.0025L207.917 69.911C201.464 68.3605 198.469 65.3583 198.469 60.4866C198.469 54.4547 203.753 50.3115 211.256 50.3115C218.681 50.3115 223.771 54.4547 223.943 60.4866H218.634C218.316 56.9977 215.417 54.8918 211.181 54.8918C206.944 54.8918 204.046 57.0225 204.046 60.1237C204.046 62.5953 205.897 64.0496 210.426 65.163L214.298 66.1087C221.508 67.805 224.504 70.6863 224.504 75.7999C224.504 82.3403 219.267 86.4368 210.938 86.4368C203.145 86.4368 197.883 82.4366 197.543 76.1132L202.926 76.1135Z" fill="white"/>
<path d="M235.855 54.3337V60.3656H240.727V64.5088H235.855V78.5602C235.855 80.7432 236.83 81.7604 238.972 81.7604C239.55 81.7504 240.128 81.71 240.702 81.6393V85.7577C239.739 85.9367 238.76 86.0178 237.781 85.9997C232.594 85.9997 230.571 84.0614 230.571 79.1183V64.5088H226.846V60.3656H230.571V54.3337H235.855Z" fill="white"/>
<path d="M243.547 73.1112C243.547 65.0916 248.295 60.0522 255.698 60.0522C263.126 60.0522 267.852 65.0915 267.852 73.1112C267.852 81.1529 263.151 86.1702 255.698 86.1702C248.247 86.1702 243.547 81.1528 243.547 73.1112ZM262.493 73.1112C262.493 67.61 259.959 64.3631 255.698 64.3631C251.437 64.3631 248.905 67.6347 248.905 73.1112C248.905 78.6345 251.437 81.8567 255.698 81.8567C259.959 81.8567 262.493 78.6345 262.493 73.1112Z" fill="white"/>
<path d="M272.188 60.3656H277.203V64.7039H277.325C277.664 63.349 278.462 62.1516 279.584 61.313C280.707 60.4743 282.085 60.0456 283.488 60.0989C284.094 60.0968 284.698 60.1623 285.289 60.2941V65.1878C284.524 64.9552 283.726 64.8484 282.926 64.8717C282.162 64.8408 281.401 64.9748 280.694 65.2645C279.987 65.5541 279.351 65.9926 278.831 66.5497C278.31 67.1068 277.917 67.7694 277.678 68.492C277.439 69.2146 277.36 69.98 277.446 70.7358V85.854H272.188L272.188 60.3656Z" fill="white"/>
<path d="M309.537 78.3678C308.829 82.9948 304.3 86.1702 298.505 86.1702C291.052 86.1702 286.426 81.2023 286.426 73.2322C286.426 65.2374 291.077 60.0522 298.284 60.0522C305.372 60.0522 309.83 64.8964 309.83 72.6246V74.4171H291.734V74.7333C291.651 75.6713 291.769 76.6163 292.081 77.5055C292.393 78.3947 292.891 79.2077 293.543 79.8905C294.195 80.5733 294.985 81.1104 295.862 81.4659C296.738 81.8215 297.681 81.9875 298.627 81.9529C299.869 82.0687 301.117 81.7824 302.183 81.1364C303.249 80.4905 304.077 79.5195 304.543 78.3678L309.537 78.3678ZM291.759 70.7606H304.568C304.615 69.9172 304.487 69.0731 304.191 68.2815C303.894 67.4898 303.437 66.7676 302.847 66.1601C302.257 65.5527 301.547 65.0732 300.762 64.7516C299.976 64.4301 299.133 64.2735 298.284 64.2916C297.428 64.2865 296.579 64.4502 295.786 64.7732C294.994 65.0963 294.273 65.5722 293.667 66.1737C293.06 66.7751 292.579 67.4901 292.252 68.2774C291.925 69.0647 291.757 69.9086 291.759 70.7606Z" fill="white"/>
<path d="M107.042 24.5799C108.145 24.5011 109.251 24.6668 110.282 25.065C111.312 25.4632 112.241 26.0839 113.001 26.8824C113.761 27.6808 114.333 28.6372 114.677 29.6824C115.02 30.7276 115.126 31.8357 114.987 32.9266C114.987 38.2932 112.072 41.378 107.042 41.378H100.943V24.5799H107.042ZM103.566 39.0024H106.749C107.537 39.0492 108.326 38.9207 109.057 38.6262C109.789 38.3317 110.445 37.8786 110.979 37.2998C111.512 36.7211 111.909 36.0314 112.141 35.2808C112.372 34.5302 112.433 33.7376 112.318 32.9608C112.425 32.1871 112.358 31.3995 112.123 30.6544C111.888 29.9093 111.49 29.2252 110.957 28.6511C110.425 28.077 109.772 27.6271 109.044 27.3336C108.317 27.0402 107.533 26.9104 106.749 26.9537H103.566V39.0024Z" fill="white"/>
<path d="M117.95 35.0338C117.87 34.2007 117.966 33.3602 118.232 32.5661C118.497 31.772 118.927 31.0419 119.492 30.4225C120.058 29.8032 120.748 29.3084 121.517 28.9698C122.286 28.6312 123.118 28.4563 123.96 28.4563C124.801 28.4563 125.633 28.6312 126.402 28.9698C127.171 29.3084 127.861 29.8032 128.427 30.4225C128.993 31.0419 129.422 31.772 129.688 32.5661C129.953 33.3602 130.049 34.2007 129.969 35.0338C130.05 35.8677 129.956 36.7094 129.691 37.5048C129.426 38.3002 128.997 39.0316 128.431 39.6521C127.865 40.2727 127.175 40.7685 126.405 41.1079C125.635 41.4472 124.802 41.6225 123.96 41.6225C123.117 41.6225 122.284 41.4472 121.514 41.1079C120.744 40.7685 120.054 40.2727 119.488 39.6521C118.922 39.0316 118.493 38.3002 118.228 37.5048C117.963 36.7094 117.869 35.8677 117.95 35.0338ZM127.382 35.0338C127.382 32.2859 126.141 30.679 123.964 30.679C121.778 30.679 120.548 32.2859 120.548 35.0338C120.548 37.8037 121.778 39.3983 123.964 39.3983C126.141 39.3982 127.382 37.7927 127.382 35.0338Z" fill="white"/>
<path d="M145.943 41.3778H143.335L140.701 32.0413H140.502L137.879 41.3778H135.296L131.783 28.7009H134.334L136.617 38.3741H136.805L139.424 28.7009H141.837L144.457 38.3741H144.656L146.927 28.7009H149.442L145.943 41.3778Z" fill="white"/>
<path d="M152.397 28.7008H154.817V30.7146H155.005C155.324 29.9913 155.862 29.385 156.543 28.9801C157.225 28.5753 158.017 28.3921 158.808 28.4561C159.428 28.4097 160.05 28.5027 160.629 28.7282C161.208 28.9537 161.729 29.3059 162.152 29.7587C162.576 30.2115 162.892 30.7533 163.076 31.344C163.261 31.9347 163.309 32.5592 163.218 33.1711V41.3775H160.704V33.7993C160.704 31.7621 159.814 30.749 157.954 30.749C157.533 30.7295 157.113 30.8008 156.722 30.9579C156.331 31.1151 155.979 31.3545 155.69 31.6596C155.401 31.9647 155.182 32.3284 155.048 32.7257C154.913 33.1231 154.867 33.5446 154.911 33.9615V41.3776H152.396L152.397 28.7008Z" fill="white"/>
<path d="M167.227 23.7522H169.741V41.3777H167.227V23.7522Z" fill="white"/>
<path d="M173.237 35.0338C173.157 34.2006 173.253 33.36 173.519 32.5659C173.784 31.7718 174.214 31.0417 174.78 30.4223C175.346 29.803 176.035 29.3082 176.805 28.9696C177.574 28.631 178.406 28.4561 179.247 28.4561C180.089 28.4561 180.921 28.631 181.69 28.9696C182.459 29.3082 183.149 29.803 183.715 30.4223C184.281 31.0417 184.71 31.7718 184.976 32.5659C185.241 33.36 185.337 34.2006 185.257 35.0338C185.339 35.8677 185.244 36.7095 184.979 37.5048C184.714 38.3002 184.285 39.0316 183.719 39.6521C183.153 40.2726 182.463 40.7685 181.693 41.1078C180.922 41.4471 180.09 41.6224 179.247 41.6224C178.405 41.6224 177.572 41.4471 176.802 41.1078C176.032 40.7685 175.342 40.2726 174.776 39.6521C174.21 39.0316 173.78 38.3002 173.515 37.5048C173.251 36.7095 173.156 35.8677 173.237 35.0338ZM182.669 35.0338C182.669 32.2859 181.428 30.679 179.251 30.679C177.065 30.679 175.835 32.2859 175.835 35.0338C175.835 37.8037 177.065 39.3982 179.251 39.3982C181.428 39.3982 182.669 37.7927 182.669 35.0338Z" fill="white"/>
<path d="M187.904 37.7928C187.904 35.5109 189.612 34.1954 192.644 34.0084L196.095 33.8105V32.7163C196.095 31.3774 195.205 30.6213 193.487 30.6213C192.083 30.6213 191.11 31.1341 190.831 32.0303H188.396C188.653 29.8529 190.712 28.4563 193.603 28.4563C196.797 28.4563 198.599 30.0385 198.599 32.7163V41.3778H196.178V39.5963H195.979C195.575 40.2354 195.008 40.7563 194.336 41.106C193.663 41.4557 192.91 41.6216 192.152 41.5867C191.617 41.642 191.076 41.5853 190.565 41.42C190.053 41.2548 189.582 40.9847 189.182 40.6273C188.782 40.2698 188.461 39.8329 188.241 39.3447C188.021 38.8565 187.906 38.3278 187.904 37.7928ZM196.095 36.7096V35.6497L192.984 35.8477C191.229 35.9645 190.433 36.5584 190.433 37.6759C190.433 38.8169 191.428 39.4808 192.796 39.4808C193.197 39.5212 193.601 39.4809 193.986 39.3624C194.371 39.2439 194.728 39.0496 195.036 38.7911C195.344 38.5325 195.596 38.215 195.778 37.8574C195.96 37.4998 196.068 37.1094 196.095 36.7096Z" fill="white"/>
<path d="M201.904 35.0338C201.904 31.0282 203.974 28.4906 207.194 28.4906C207.99 28.4541 208.78 28.6438 209.472 29.0377C210.164 29.4315 210.729 30.0132 211.101 30.7146H211.289V23.7522H213.804V41.3777H211.394V39.3749H211.195C210.794 40.0716 210.21 40.646 209.504 41.0359C208.799 41.4257 208 41.6162 207.194 41.5866C203.952 41.5868 201.904 39.0491 201.904 35.0338ZM204.502 35.0338C204.502 37.7226 205.776 39.3406 207.907 39.3406C210.026 39.3406 211.336 37.6993 211.336 35.0449C211.336 32.4028 210.013 30.7381 207.907 30.7381C205.79 30.7381 204.502 32.367 204.502 35.0338Z" fill="white"/>
<path d="M224.208 35.0338C224.128 34.2007 224.224 33.3602 224.489 32.5661C224.755 31.772 225.184 31.0419 225.75 30.4225C226.316 29.8032 227.006 29.3084 227.775 28.9698C228.544 28.6312 229.376 28.4563 230.217 28.4563C231.059 28.4563 231.89 28.6312 232.66 28.9698C233.429 29.3084 234.119 29.8032 234.685 30.4225C235.25 31.0419 235.68 31.772 235.945 32.5661C236.211 33.3602 236.307 34.2007 236.227 35.0338C236.308 35.8677 236.214 36.7094 235.949 37.5048C235.684 38.3002 235.255 39.0316 234.689 39.6521C234.123 40.2727 233.433 40.7685 232.663 41.1079C231.892 41.4472 231.06 41.6225 230.217 41.6225C229.375 41.6225 228.542 41.4472 227.772 41.1079C227.002 40.7685 226.312 40.2727 225.746 39.6521C225.18 39.0316 224.751 38.3002 224.486 37.5048C224.221 36.7094 224.126 35.8677 224.208 35.0338ZM233.64 35.0338C233.64 32.2859 232.399 30.679 230.221 30.679C228.036 30.679 226.806 32.2859 226.806 35.0338C226.806 37.8037 228.036 39.3983 230.221 39.3983C232.399 39.3982 233.64 37.7927 233.64 35.0338Z" fill="white"/>
<path d="M239.6 28.7008H242.02V30.7146H242.208C242.527 29.9913 243.065 29.385 243.746 28.9801C244.428 28.5753 245.22 28.3921 246.011 28.4561C246.631 28.4097 247.254 28.5027 247.832 28.7282C248.411 28.9537 248.932 29.3059 249.356 29.7587C249.779 30.2115 250.095 30.7533 250.279 31.344C250.464 31.9347 250.512 32.5592 250.421 33.1711V41.3775H247.907V33.7993C247.907 31.7621 247.017 30.749 245.157 30.749C244.736 30.7295 244.316 30.8008 243.925 30.9579C243.534 31.1151 243.183 31.3545 242.894 31.6596C242.605 31.9647 242.385 32.3284 242.251 32.7257C242.116 33.1231 242.07 33.5446 242.114 33.9615V41.3776H239.6V28.7008Z" fill="white"/>
<path d="M264.632 25.5447V28.7586H267.393V30.8659H264.632V37.3844C264.632 38.7123 265.182 39.2937 266.434 39.2937C266.755 39.2927 267.075 39.2734 267.393 39.236V41.3199C266.941 41.4003 266.484 41.4431 266.025 41.4478C263.228 41.4478 262.115 40.469 262.115 38.0249V30.8658H260.092V28.7584H262.115V25.5447H264.632Z" fill="white"/>
<path d="M270.828 23.7522H273.321V30.7381H273.52C273.854 30.008 274.406 29.3983 275.102 28.9919C275.797 28.5855 276.601 28.4023 277.405 28.4672C278.022 28.4338 278.638 28.5363 279.211 28.7672C279.783 28.9982 280.297 29.352 280.717 29.8034C281.136 30.2548 281.45 30.7926 281.636 31.3786C281.822 31.9645 281.876 32.5841 281.794 33.1932V41.3777H279.276V33.8104C279.276 31.7855 278.328 30.76 276.551 30.76C276.119 30.7248 275.684 30.7839 275.278 30.9333C274.871 31.0826 274.502 31.3186 274.196 31.6247C273.89 31.9309 273.656 32.2997 273.508 32.7055C273.361 33.1113 273.305 33.5442 273.343 33.9739V41.3777H270.828L270.828 23.7522Z" fill="white"/>
<path d="M296.456 37.955C296.115 39.1135 295.374 40.1157 294.365 40.7862C293.356 41.4566 292.141 41.7527 290.935 41.6225C290.095 41.6445 289.261 41.4845 288.49 41.1537C287.719 40.8228 287.029 40.329 286.469 39.7064C285.909 39.0838 285.492 38.3475 285.247 37.5485C285.001 36.7494 284.934 35.9069 285.048 35.0792C284.937 34.2491 285.005 33.4047 285.25 32.6033C285.495 31.8018 285.91 31.0621 286.467 30.4341C287.024 29.8061 287.71 29.3045 288.479 28.9632C289.248 28.622 290.082 28.4491 290.924 28.4563C294.469 28.4563 296.608 30.8661 296.608 34.8469V35.7199H287.61V35.8601C287.571 36.3253 287.63 36.7935 287.783 37.2348C287.936 37.6761 288.18 38.0807 288.5 38.4226C288.819 38.7645 289.207 39.0363 289.638 39.2204C290.069 39.4045 290.535 39.4969 291.004 39.4917C291.605 39.5636 292.215 39.4558 292.755 39.1821C293.294 38.9085 293.74 38.4813 294.035 37.9549L296.456 37.955ZM287.61 33.8696H294.046C294.078 33.4441 294.02 33.0167 293.876 32.615C293.732 32.2132 293.504 31.8458 293.209 31.5366C292.914 31.2273 292.557 30.9829 292.161 30.8191C291.765 30.6554 291.339 30.5758 290.91 30.5856C290.475 30.5801 290.043 30.6614 289.64 30.8245C289.237 30.9876 288.871 31.2294 288.564 31.5354C288.256 31.8415 288.014 32.2057 287.85 32.6065C287.686 33.0074 287.605 33.4369 287.61 33.8696Z" fill="white"/>
</g>
<defs>
<clipPath id="clip0_1639_4988">
<rect width="338.628" height="112.61" fill="white"/>
</clipPath>
</defs>
</svg>
