<svg 
  id="Layer_1" 
  data-name="Layer 1" 
  xmlns="http://www.w3.org/2000/svg" 
  viewBox="0 0 576 576" 
  fill="#07315C"
>
  <path d="M237.78,99.27,131.56,287.41H344Zm0,32L265,179.36l-27.17,48.15-27.19-48.14ZM158.43,271.88l43.18-76.48,27.14,48.08,9,16,7,12.43Zm88.36-28.4,27.13-48.08,43.18,76.48H262.81Z"/>
  <polygon points="178.33 259.69 201.61 218.46 216.24 244.38 221.1 252.99 224.88 259.69 178.33 259.69"/>
  <polygon points="224.88 259.69 178.33 259.69 201.61 218.46 216.24 244.38 221.1 252.99 224.88 259.69"/>
  <path d="M52.28,426.19,73.64,466.5H69.85l-5.06-9.73H39.61l-5.19,9.74H30.54ZM63.21,453.8l-11-20.92L41.18,453.8Z"/>
  <path d="M79.73,427.61l13.17,0c14.15,0,22,8.55,22,19.49s-7.83,19.35-22,19.35H79.73ZM92.9,463.25c12.44,0,18.49-7,18.49-16.16s-6-16.27-18.49-16.3H83.2v32.48Z"/>
  <path d="M117.57,427.61h3.91l16.73,33.46,16.54-33.46h3.77l-20.28,40.31Z"/>
  <path d="M164.64,427.61h3.49v38.82h-3.49Z"/>
  <path d="M194.72,466.82a33.35,33.35,0,0,1-17.52-4.64l1.89-2.73a30.63,30.63,0,0,0,15.77,4.18c6.7-.09,11.45-2.72,11.45-7.35,0-4.16-2.88-5.72-9.67-7.33l-5.44-1.27c-7.95-1.86-12.14-4.84-12.19-10.39,0-6.15,6.06-10,14.64-10.06a28.11,28.11,0,0,1,14.92,4.14l-1.82,2.74a23.52,23.52,0,0,0-12.81-3.69c-6.68.12-11.28,2.54-11.23,7,0,3.81,3.18,5.71,9.53,7.2l5.65,1.31c8.18,1.9,12,4.68,12,10.35.06,6.47-6.25,10.54-15.18,10.58Z"/>
  <path d="M219.16,427.61h30v3.17h-26.5v13.06l19.76,0V447H222.64v16.23h26.51v3.22h-30Z"/>
  <path d="M285,466.43l-22.57-17.85v17.85h-3.5V427.61h17.8c8,0,13.65,3.73,13.65,11s-5.44,11-13.42,11h-8.13l21.67,16.79Zm-22.57-20h14.54c5.72,0,9.82-2.38,9.82-7.79s-4.1-7.83-9.82-7.83H262.38Z"/>
  <path d="M314.68,466.82a33.37,33.37,0,0,1-17.52-4.64l1.9-2.73a30.59,30.59,0,0,0,15.76,4.18c6.7-.09,11.45-2.72,11.46-7.35,0-4.16-2.89-5.72-9.68-7.33l-5.44-1.27c-7.94-1.86-12.14-4.84-12.19-10.39-.05-6.15,6.06-10,14.64-10.06a28.08,28.08,0,0,1,14.92,4.14l-1.82,2.74a23.5,23.5,0,0,0-12.81-3.69c-6.67.12-11.28,2.54-11.23,7,.05,3.81,3.18,5.71,9.54,7.2l5.64,1.31c8.19,1.9,12,4.68,12,10.35.05,6.47-6.26,10.54-15.19,10.58Z"/>
  <polygon points="225.13 314.01 146.81 314.01 146.81 338.86 173.55 338.86 173.55 407.18 198.39 407.18 198.39 338.86 225.13 338.86 225.13 314.01"/>
  <polygon points="167.61 407.18 142.76 407.18 116.97 360.59 90.19 407.18 65.34 407.18 116.97 315.67 167.61 407.18"/>
  <polygon points="256.06 382.33 256.06 314.01 231.22 314.01 231.22 407.18 298.62 407.18 312.01 382.33 256.06 382.33"/>
  <polygon points="464.12 314.01 385.81 314.01 385.81 338.86 412.54 338.86 412.54 407.18 437.39 407.18 437.39 338.86 464.12 338.86 464.12 314.01"/>
  <polygon points="406.61 407.18 381.76 407.18 355.96 360.59 330.18 407.18 305.34 407.18 355.96 315.67 406.61 407.18"/>
  <polygon points="495.05 382.33 495.05 314.01 470.21 314.01 470.21 407.18 539.61 407.18 539.61 382.33 495.05 382.33"/>
</svg>