<svg width="441" height="171" viewBox="0 0 441 171" fill="none" xmlns="http://www.w3.org/2000/svg">
<g clip-path="url(#clip0_1639_4989)">
<path d="M398.191 28.3521H42.6625C34.8084 28.3521 28.4414 34.6989 28.4414 42.5281V127.584C28.4414 135.414 34.8084 141.761 42.6625 141.761H398.191C406.045 141.761 412.412 135.414 412.412 127.584V42.5281C412.412 34.6989 406.045 28.3521 398.191 28.3521Z" fill="#07315C"/>
<path d="M398.191 30.6202C404.778 30.6202 410.137 35.9618 410.137 42.5281V127.584C410.137 134.151 404.778 139.492 398.191 139.492H42.6625C36.0753 139.492 30.7168 134.151 30.7168 127.584V42.5281C30.7168 35.9618 36.0753 30.6202 42.6625 30.6202H398.191ZM398.191 28.3521H42.6625C34.8409 28.3521 28.4414 34.7313 28.4414 42.5281V127.584C28.4414 135.381 34.8409 141.761 42.6625 141.761H398.191C406.013 141.761 412.412 135.381 412.412 127.584V42.5281C412.412 34.7313 406.013 28.3521 398.191 28.3521Z" fill="white"/>
<path d="M163.31 57.3927C163.31 59.7686 162.604 61.6597 161.191 63.0716C159.587 64.7501 157.493 65.5893 154.922 65.5893C152.459 65.5893 150.366 64.7388 148.642 63.0376C146.918 61.3337 146.057 59.2243 146.057 56.7066C146.057 54.1889 146.918 52.0767 148.642 50.3756C150.363 48.6716 152.459 47.821 154.922 47.821C156.145 47.821 157.314 48.0592 158.426 48.5327C159.538 49.009 160.429 49.6412 161.094 50.4323L159.595 51.9293C158.466 50.5825 156.91 49.9106 154.922 49.9106C153.125 49.9106 151.572 50.54 150.26 51.7988C148.949 53.0577 148.295 54.6936 148.295 56.7038C148.295 58.7139 148.949 60.3498 150.26 61.6087C151.572 62.8675 153.125 63.4969 154.922 63.4969C156.828 63.4969 158.418 62.8647 159.689 61.5973C160.514 60.7723 160.992 59.624 161.12 58.1526H154.922V56.1084H163.19C163.27 56.5535 163.31 56.9788 163.31 57.3927Z" fill="white" stroke="white" stroke-width="0.2" stroke-miterlimit="10"/>
<path d="M176.422 50.2882H168.652V55.6808H175.66V57.7249H168.652V63.1175H176.422V65.2071H166.459V48.1958H176.422V50.2882Z" fill="white" stroke="white" stroke-width="0.2" stroke-miterlimit="10"/>
<path d="M185.669 65.21H183.476V50.2883H178.709V48.1987H190.436V50.2883H185.669V65.21Z" fill="white" stroke="white" stroke-width="0.2" stroke-miterlimit="10"/>
<path d="M198.92 65.21V48.1987H201.11V65.21H198.92Z" fill="white" stroke="white" stroke-width="0.2" stroke-miterlimit="10"/>
<path d="M210.837 65.21H208.644V50.2883H203.877V48.1987H215.604V50.2883H210.837V65.21Z" fill="white" stroke="white" stroke-width="0.2" stroke-miterlimit="10"/>
<path d="M237.803 63.0127C236.125 64.7336 234.04 65.5899 231.546 65.5899C229.052 65.5899 226.967 64.7308 225.292 63.0127C223.614 61.2945 222.777 59.1908 222.777 56.7043C222.777 54.2178 223.614 52.1141 225.292 50.396C226.967 48.675 229.052 47.8159 231.546 47.8159C234.026 47.8159 236.105 48.6807 237.792 50.4073C239.476 52.1339 240.318 54.232 240.318 56.7043C240.318 59.1908 239.479 61.2945 237.803 63.0127ZM226.91 61.5865C228.173 62.8624 229.717 63.4975 231.546 63.4975C233.375 63.4975 234.919 62.8596 236.182 61.5865C237.445 60.3107 238.079 58.6833 238.079 56.7043C238.079 54.7253 237.445 53.0951 236.182 51.8221C234.922 50.5462 233.375 49.9111 231.546 49.9111C229.717 49.9111 228.173 50.5491 226.91 51.8221C225.65 53.0979 225.016 54.7253 225.016 56.7043C225.016 58.6833 225.65 60.3135 226.91 61.5865Z" fill="white" stroke="white" stroke-width="0.2" stroke-miterlimit="10"/>
<path d="M243.395 65.21V48.1987H246.066L254.36 61.4307H254.454L254.36 58.1532V48.1987H256.553V65.21H254.263L245.585 51.3345H245.492L245.585 54.612V65.2072H243.393L243.395 65.21Z" fill="white" stroke="white" stroke-width="0.2" stroke-miterlimit="10"/>
<path d="M222.237 90.0236C215.548 90.0236 210.095 95.093 210.095 102.082C210.095 109.025 215.548 114.14 222.237 114.14C228.927 114.14 234.379 109.025 234.379 102.082C234.379 95.093 228.927 90.0236 222.237 90.0236ZM222.237 109.388C218.571 109.388 215.411 106.374 215.411 102.079C215.411 97.7382 218.574 94.7697 222.237 94.7697C225.901 94.7697 229.063 97.7382 229.063 102.079C229.063 106.371 225.901 109.388 222.237 109.388ZM195.749 90.0236C189.059 90.0236 183.607 95.093 183.607 102.082C183.607 109.025 189.059 114.14 195.749 114.14C202.439 114.14 207.891 109.025 207.891 102.082C207.891 95.093 202.439 90.0236 195.749 90.0236ZM195.749 109.388C192.083 109.388 188.92 106.374 188.92 102.079C188.92 97.7382 192.083 94.7697 195.749 94.7697C199.415 94.7697 202.575 97.7382 202.575 102.079C202.575 106.371 199.412 109.388 195.749 109.388ZM164.238 93.7236V98.8383H176.519C176.152 101.716 175.191 103.817 173.723 105.28C171.937 107.06 169.141 109.025 164.238 109.025C156.678 109.025 150.768 102.949 150.768 95.4133C150.768 87.8773 156.678 81.8015 164.238 81.8015C168.316 81.8015 171.294 83.4006 173.493 85.4561L177.114 81.8469C174.045 78.9237 169.966 76.6868 164.238 76.6868C153.882 76.6868 145.176 85.0903 145.176 95.4133C145.176 105.736 153.882 114.14 164.238 114.14C169.83 114.14 174.045 112.314 177.344 108.886C180.734 105.507 181.79 100.755 181.79 96.9188C181.79 95.7309 181.699 94.6365 181.514 93.7207L164.238 93.7236ZM293.104 97.6957C292.097 95.0022 289.026 90.0208 282.748 90.0208C276.517 90.0208 271.34 94.9087 271.34 102.079C271.34 108.838 276.471 114.137 283.346 114.137C288.889 114.137 292.097 110.758 293.426 108.793L289.301 106.051C287.928 108.061 286.048 109.385 283.346 109.385C280.644 109.385 278.718 108.152 277.481 105.731L293.656 99.0623L293.107 97.6929L293.104 97.6957ZM276.608 101.716C276.471 97.0578 280.228 94.6819 282.93 94.6819C285.038 94.6819 286.824 95.7309 287.421 97.2392L276.608 101.716ZM263.459 113.408H268.775V77.9626H263.459V113.408ZM254.75 92.7171H254.568C253.376 91.3023 251.086 90.0208 248.199 90.0208C242.15 90.0208 236.606 95.3198 236.606 102.124C236.606 108.883 242.15 114.137 248.199 114.137C251.086 114.137 253.376 112.858 254.568 111.395H254.75V113.131C254.75 117.743 252.275 120.21 248.288 120.21C245.034 120.21 243.017 117.88 242.192 115.918L237.565 117.837C238.893 121.035 242.423 124.962 248.288 124.962C254.519 124.962 259.79 121.307 259.79 112.402V90.7523H254.75V92.7171ZM248.657 109.388C244.991 109.388 241.922 106.329 241.922 102.124C241.922 97.8771 244.991 94.7697 248.657 94.7697C252.278 94.7697 255.119 97.8771 255.119 102.124C255.119 106.326 252.278 109.388 248.657 109.388ZM318.003 77.9654H305.286V113.408H310.593V99.9809H318.003C323.884 99.9809 329.667 95.7366 329.667 88.9717C329.667 82.2069 323.884 77.9654 318.003 77.9654ZM318.139 95.0476H310.59V82.8987H318.139C322.107 82.8987 324.359 86.1734 324.359 88.9746C324.359 91.7219 322.107 95.0504 318.139 95.0504V95.0476ZM350.939 89.9584C347.096 89.9584 343.117 91.6453 341.47 95.385L346.183 97.347C347.19 95.385 349.064 94.7471 351.033 94.7471C353.777 94.7471 356.567 96.3887 356.613 99.3061V99.6718C355.652 99.1246 353.595 98.3024 351.078 98.3024C346.001 98.3024 340.83 101.084 340.83 106.284C340.83 111.027 344.991 114.08 349.659 114.08C353.225 114.08 355.194 112.484 356.428 110.616H356.61V113.352H361.733V99.7626C361.733 93.4684 357.022 89.9584 350.939 89.9584ZM350.299 109.382C348.561 109.382 346.135 108.518 346.135 106.374C346.135 103.638 349.153 102.589 351.761 102.589C354.093 102.589 355.191 103.091 356.61 103.774C356.198 107.058 353.362 109.382 350.299 109.382ZM380.396 90.7324L374.313 106.099H374.131L367.819 90.7324H362.102L371.571 112.209L366.172 124.157H371.707L386.301 90.7324H380.399H380.396ZM332.593 113.408H337.901V77.9654H332.593V113.408Z" fill="white"/>
<path d="M87.3665 83.4233L57.084 115.461C57.084 115.461 57.0868 115.475 57.0897 115.481C58.0197 118.96 61.2053 121.52 64.9881 121.52C66.4984 121.52 67.9205 121.112 69.1378 120.397L69.2345 120.341L103.32 100.735L87.3665 83.4233Z" fill="#EA4335"/>
<path d="M118.001 77.9684L117.973 77.9485L103.257 69.4429L86.6777 84.1491L103.314 100.729L117.95 92.3117C120.516 90.9309 122.259 88.2347 122.259 85.1244C122.259 82.034 120.541 79.3519 117.998 77.9655L118.001 77.9684Z" fill="#FBBC04"/>
<path d="M57.0834 54.6543C56.9014 55.3234 56.8047 56.0265 56.8047 56.7524V113.366C56.8047 114.092 56.8985 114.795 57.0834 115.461L88.4069 84.2426L57.0834 54.6543Z" fill="#4285F4"/>
<path d="M87.5903 85.0592L103.262 69.44L69.2166 49.7637C67.9793 49.0237 66.5345 48.5984 64.9901 48.5984C61.2072 48.5984 58.016 51.1643 57.0859 54.6487V54.6572L87.5931 85.062L87.5903 85.0592Z" fill="#34A853"/>
</g>
<defs>
<clipPath id="clip0_1639_4989">
<rect width="440.855" height="170.113" fill="white"/>
</clipPath>
</defs>
</svg>
