<svg width="70" height="70" viewBox="0 0 70 70" fill="none" xmlns="http://www.w3.org/2000/svg">
<path fill-rule="evenodd" clip-rule="evenodd" d="M6.56252 10.937C15.4277 10.9776 21.6072 12.0921 25.7635 14.0779C29.7003 15.9588 31.8514 18.6275 32.8125 22.1568V56.1088C27.8381 52.4356 20.1932 50.3163 6.60344 50.312C6.58479 50.2637 6.56252 50.1788 6.56252 50.0482V10.937ZM37.1875 56.1056C42.1712 52.4194 49.8131 50.312 63.4375 50.312V10.937C54.5723 10.9776 48.3929 12.0921 44.2366 14.0779C40.2997 15.9588 38.1486 18.6275 37.1875 22.1568V56.1056ZM35 16.3658C33.3396 13.7767 30.9127 11.6894 27.6495 10.1303C22.6325 7.73328 15.6899 6.60294 6.57232 6.56205L6.57077 6.56204C5.99454 6.55987 5.42358 6.67176 4.89081 6.89127C4.35803 7.11078 3.87396 7.43356 3.46651 7.84102C3.05905 8.24847 2.73627 8.73254 2.51676 9.26532C2.29786 9.79661 2.18598 10.3659 2.18752 10.9405V50.0482C2.18752 51.162 2.53254 52.301 3.29665 53.1985C4.08836 54.1284 5.24303 54.687 6.56252 54.687C23.8022 54.687 29.754 58.1893 33.2912 62.6152C33.7062 63.1345 34.3348 63.4369 34.9995 63.437C35.6642 63.4372 36.293 63.1351 36.7082 62.616C40.2696 58.1639 46.1966 54.687 63.4375 54.687C64.5978 54.687 65.7106 54.2261 66.5311 53.4056C67.3516 52.5851 67.8125 51.4723 67.8125 50.312V10.94C67.814 10.3656 67.7021 9.79647 67.4833 9.26532C67.2638 8.73254 66.941 8.24847 66.5335 7.84102C66.1261 7.43356 65.642 7.11078 65.1092 6.89127C64.5765 6.67176 64.0055 6.55987 63.4293 6.56204L63.4277 6.56205C54.3101 6.60294 47.3675 7.73328 42.3505 10.1303C39.0874 11.6894 36.6605 13.7767 35 16.3658Z" fill="white"/>
</svg>
