<svg width="70" height="70" viewBox="0 0 70 70" fill="none" xmlns="http://www.w3.org/2000/svg">
<path fill-rule="evenodd" clip-rule="evenodd" d="M6.5625 35C6.5625 19.2997 19.2997 6.5625 35 6.5625C50.7003 6.5625 63.4375 19.2997 63.4375 35C63.4375 50.7003 50.7003 63.4375 35 63.4375C19.2997 63.4375 6.5625 50.7003 6.5625 35ZM35 10.9375C21.7159 10.9375 10.9375 21.7159 10.9375 35C10.9375 48.2841 21.7159 59.0625 35 59.0625C48.2841 59.0625 59.0625 48.2841 59.0625 35C59.0625 21.7159 48.2841 10.9375 35 10.9375Z" fill="white"/>
<path d="M47.9432 20.635L31.9197 27.0443C30.8192 27.4844 29.8196 28.1435 28.9816 28.9816C28.1435 29.8196 27.4844 30.8192 27.0443 31.9197L20.635 47.9432C20.5554 48.1419 20.5359 48.3597 20.5789 48.5694C20.622 48.7791 20.7256 48.9716 20.877 49.123C21.0284 49.2744 21.2209 49.378 21.4306 49.4211C21.6403 49.4641 21.8581 49.4446 22.0568 49.365L38.0803 42.9557C39.1808 42.5156 40.1804 41.8565 41.0184 41.0184C41.8565 40.1804 42.5156 39.1808 42.9557 38.0803L49.365 22.0568C49.4446 21.8581 49.4641 21.6403 49.4211 21.4306C49.378 21.2209 49.2744 21.0284 49.123 20.877C48.9716 20.7256 48.7791 20.622 48.5694 20.5789C48.3597 20.5359 48.1419 20.5554 47.9432 20.635ZM35 38.2812C34.351 38.2812 33.7166 38.0888 33.177 37.7283C32.6374 37.3677 32.2169 36.8552 31.9685 36.2557C31.7202 35.6561 31.6552 34.9964 31.7818 34.3599C31.9084 33.7234 32.2209 33.1387 32.6798 32.6798C33.1387 32.2209 33.7234 31.9084 34.3599 31.7818C34.9964 31.6552 35.6561 31.7202 36.2557 31.9685C36.8552 32.2169 37.3677 32.6374 37.7283 33.177C38.0888 33.7166 38.2812 34.351 38.2812 35C38.2812 35.8702 37.9355 36.7048 37.3202 37.3202C36.7048 37.9355 35.8702 38.2812 35 38.2812Z" fill="white"/>
</svg>
