<svg width="70" height="70" viewBox="0 0 70 70" fill="none" xmlns="http://www.w3.org/2000/svg">
<path fill-rule="evenodd" clip-rule="evenodd" d="M35.9005 4.56888C35.3281 4.31037 34.6722 4.31037 34.0998 4.56888C23.2241 9.48053 18.3419 11.0498 6.29947 13.21C5.30787 13.3878 4.56597 14.2199 4.50254 15.2253C2.19062 51.8678 31.9273 64.5582 34.183 65.4666C34.7073 65.6778 35.293 65.6778 35.8173 65.4666C38.073 64.5582 67.8097 51.8678 65.4978 15.2253C65.4343 14.2199 64.6924 13.3878 63.7008 13.21C51.6584 11.0498 46.7762 9.48053 35.9005 4.56888ZM35.0002 61.0559C39.8753 58.845 62.2462 47.0485 61.2147 17.2037C50.3322 15.1834 45.0684 13.4725 35.0002 8.96118V61.0559Z" fill="white"/>
</svg>
